<mxfile host="app.diagrams.net" modified="2020-12-29T17:10:42.109Z" agent="5.0 (Windows)" etag="NUAPHumuhNO2uE-BwmT4" version="14.0.1" type="github">
  <diagram id="kgpKYQtTHZ0yAKxKKP6v" name="Page-1">
    <mxGraphModel dx="782" dy="427" grid="1" gridSize="10" guides="1" tooltips="1" connect="1" arrows="1" fold="1" page="1" pageScale="1" pageWidth="850" pageHeight="1100" math="0" shadow="0">
      <root>
        <mxCell id="0" />
        <mxCell id="1" parent="0" />
        <mxCell id="N_aZG-bnScdPrSIIgNcL-1" value="جستجو (نام رستوران)" style="html=1;verticalAlign=bottom;endArrow=block;labelBackgroundColor=none;fontFamily=Verdana;fontSize=12;edgeStyle=elbowEdgeStyle;elbow=vertical;" edge="1" parent="1" source="N_aZG-bnScdPrSIIgNcL-3" target="N_aZG-bnScdPrSIIgNcL-7">
          <mxGeometry relative="1" as="geometry">
            <mxPoint x="165" y="210" as="sourcePoint" />
            <mxPoint x="450" y="204" as="targetPoint" />
            <Array as="points">
              <mxPoint x="230" y="180" />
            </Array>
          </mxGeometry>
        </mxCell>
        <mxCell id="N_aZG-bnScdPrSIIgNcL-2" value="&amp;nbsp;جستجو خریدار" style="shape=note;whiteSpace=wrap;html=1;size=14;verticalAlign=top;align=left;spacingTop=-6;rounded=0;shadow=0;comic=0;labelBackgroundColor=none;strokeWidth=1;fontFamily=Verdana;fontSize=12" vertex="1" parent="1">
          <mxGeometry x="10" y="10" width="100" height="35" as="geometry" />
        </mxCell>
        <mxCell id="N_aZG-bnScdPrSIIgNcL-3" value="" style="shape=umlLifeline;participant=umlActor;perimeter=lifelinePerimeter;whiteSpace=wrap;html=1;container=1;collapsible=0;recursiveResize=0;verticalAlign=top;spacingTop=36;outlineConnect=0;" vertex="1" parent="1">
          <mxGeometry x="85" y="90" width="20" height="580" as="geometry" />
        </mxCell>
        <mxCell id="N_aZG-bnScdPrSIIgNcL-4" value="" style="html=1;points=[];perimeter=orthogonalPerimeter;" vertex="1" parent="N_aZG-bnScdPrSIIgNcL-3">
          <mxGeometry x="5" y="80" width="10" height="130" as="geometry" />
        </mxCell>
        <mxCell id="N_aZG-bnScdPrSIIgNcL-5" value="خریدار" style="text;html=1;align=center;verticalAlign=middle;resizable=0;points=[];autosize=1;" vertex="1" parent="1">
          <mxGeometry x="75" y="70" width="40" height="20" as="geometry" />
        </mxCell>
        <mxCell id="N_aZG-bnScdPrSIIgNcL-6" value="&lt;b&gt;&lt;font style=&quot;font-size: 24px&quot;&gt;سیستم &lt;br&gt;&lt;/font&gt;&lt;/b&gt;" style="shape=umlLifeline;perimeter=lifelinePerimeter;whiteSpace=wrap;html=1;container=1;collapsible=0;recursiveResize=0;outlineConnect=0;" vertex="1" parent="1">
          <mxGeometry x="210" y="70" width="100" height="570" as="geometry" />
        </mxCell>
        <mxCell id="N_aZG-bnScdPrSIIgNcL-7" value="" style="html=1;points=[];perimeter=orthogonalPerimeter;rounded=0;shadow=0;comic=0;labelBackgroundColor=none;strokeWidth=1;fontFamily=Verdana;fontSize=12;align=center;" vertex="1" parent="N_aZG-bnScdPrSIIgNcL-6">
          <mxGeometry x="45" y="90" width="10" height="120" as="geometry" />
        </mxCell>
        <mxCell id="N_aZG-bnScdPrSIIgNcL-12" value="&lt;font style=&quot;font-size: 20px&quot;&gt;&lt;b&gt;&lt;font style=&quot;font-size: 20px&quot;&gt;دیتابیس رستوران ها&lt;/font&gt;&lt;/b&gt;&lt;/font&gt;" style="shape=umlLifeline;perimeter=lifelinePerimeter;whiteSpace=wrap;html=1;container=1;collapsible=0;recursiveResize=0;outlineConnect=0;" vertex="1" parent="1">
          <mxGeometry x="400" y="70" width="140" height="570" as="geometry" />
        </mxCell>
        <mxCell id="N_aZG-bnScdPrSIIgNcL-13" value="" style="html=1;points=[];perimeter=orthogonalPerimeter;rounded=0;shadow=0;comic=0;labelBackgroundColor=none;strokeWidth=1;fontFamily=Verdana;fontSize=12;align=center;" vertex="1" parent="N_aZG-bnScdPrSIIgNcL-12">
          <mxGeometry x="65" y="90" width="10" height="120" as="geometry" />
        </mxCell>
        <mxCell id="N_aZG-bnScdPrSIIgNcL-14" value="جستجو (نام رستوران)" style="html=1;verticalAlign=bottom;endArrow=block;labelBackgroundColor=none;fontFamily=Verdana;fontSize=12;edgeStyle=elbowEdgeStyle;elbow=vertical;" edge="1" parent="1" target="N_aZG-bnScdPrSIIgNcL-12">
          <mxGeometry relative="1" as="geometry">
            <mxPoint x="265" y="200" as="sourcePoint" />
            <mxPoint x="425.5" y="200" as="targetPoint" />
            <Array as="points">
              <mxPoint x="400.5" y="200" />
            </Array>
          </mxGeometry>
        </mxCell>
        <mxCell id="N_aZG-bnScdPrSIIgNcL-15" value="لیست رستوران ها" style="html=1;verticalAlign=bottom;endArrow=open;dashed=1;endSize=8;" edge="1" parent="1" source="N_aZG-bnScdPrSIIgNcL-12">
          <mxGeometry x="0.1261" y="-12" relative="1" as="geometry">
            <mxPoint x="425" y="230" as="sourcePoint" />
            <mxPoint x="265" y="230.03999999999996" as="targetPoint" />
            <Array as="points">
              <mxPoint x="365.5" y="230.03999999999996" />
            </Array>
            <mxPoint x="1" as="offset" />
          </mxGeometry>
        </mxCell>
        <mxCell id="N_aZG-bnScdPrSIIgNcL-16" value="نمایش لیست رستوران ها" style="html=1;verticalAlign=bottom;endArrow=block;labelBackgroundColor=none;fontFamily=Verdana;fontSize=12;edgeStyle=elbowEdgeStyle;elbow=vertical;" edge="1" parent="1">
          <mxGeometry relative="1" as="geometry">
            <mxPoint x="250" y="270" as="sourcePoint" />
            <mxPoint x="100" y="270" as="targetPoint" />
            <Array as="points">
              <mxPoint x="235.5" y="270" />
            </Array>
          </mxGeometry>
        </mxCell>
      </root>
    </mxGraphModel>
  </diagram>
</mxfile>
